<svg width="18" height="18" viewBox="0 0 18 18" fill="none" xmlns="http://www.w3.org/2000/svg">
<g clip-path="url(#clip0_1232_2854)">
<path d="M12.5797 0.00900789C12.5414 -0.0337421 11.1633 0.0258829 9.96404 1.32751C8.76479 2.62801 8.94929 4.11976 8.97629 4.15801C9.00329 4.19626 10.6863 4.25588 11.7607 2.74276C12.835 1.22963 12.6179 0.0528829 12.5797 0.00900789ZM16.3079 13.2086C16.2539 13.1006 13.6923 11.8204 13.9308 9.35888C14.1693 6.89626 15.8152 6.22126 15.841 6.14813C15.8669 6.07501 15.1694 5.25938 14.4303 4.84651C13.8876 4.55542 13.287 4.38864 12.6719 4.35826C12.5504 4.35488 12.1285 4.25138 11.2612 4.48876C10.6897 4.64513 9.40154 5.15138 9.04717 5.17163C8.69167 5.19188 7.63417 4.58438 6.49679 4.42351C5.76892 4.28288 4.99717 4.57088 4.44479 4.79251C3.89354 5.01301 2.84504 5.64076 2.11154 7.30913C1.37804 8.97638 1.76167 11.6179 2.03617 12.4391C2.31067 13.2593 2.73929 14.6036 3.46829 15.5846C4.11629 16.6916 4.97579 17.46 5.33467 17.721C5.69354 17.982 6.70604 18.1553 7.40804 17.7964C7.97279 17.4499 8.99204 17.2508 9.39479 17.2654C9.79642 17.28 10.5884 17.4386 11.3995 17.8718C12.0419 18.0934 12.6494 18.0011 13.258 17.7536C13.8667 17.505 14.7475 16.5623 15.7758 14.6509C16.1662 13.7621 16.3439 13.2818 16.3079 13.2086Z" fill="white"/>
<path d="M12.5797 0.00900789C12.5414 -0.0337421 11.1633 0.0258829 9.96404 1.32751C8.76479 2.62801 8.94929 4.11976 8.97629 4.15801C9.00329 4.19626 10.6863 4.25588 11.7607 2.74276C12.835 1.22963 12.6179 0.0528829 12.5797 0.00900789ZM16.3079 13.2086C16.2539 13.1006 13.6923 11.8204 13.9308 9.35888C14.1693 6.89626 15.8152 6.22126 15.841 6.14813C15.8669 6.07501 15.1694 5.25938 14.4303 4.84651C13.8876 4.55542 13.287 4.38864 12.6719 4.35826C12.5504 4.35488 12.1285 4.25138 11.2612 4.48876C10.6897 4.64513 9.40154 5.15138 9.04717 5.17163C8.69167 5.19188 7.63417 4.58438 6.49679 4.42351C5.76892 4.28288 4.99717 4.57088 4.44479 4.79251C3.89354 5.01301 2.84504 5.64076 2.11154 7.30913C1.37804 8.97638 1.76167 11.6179 2.03617 12.4391C2.31067 13.2593 2.73929 14.6036 3.46829 15.5846C4.11629 16.6916 4.97579 17.46 5.33467 17.721C5.69354 17.982 6.70604 18.1553 7.40804 17.7964C7.97279 17.4499 8.99204 17.2508 9.39479 17.2654C9.79642 17.28 10.5884 17.4386 11.3995 17.8718C12.0419 18.0934 12.6494 18.0011 13.258 17.7536C13.8667 17.505 14.7475 16.5623 15.7758 14.6509C16.1662 13.7621 16.3439 13.2818 16.3079 13.2086Z" fill="white"/>
</g>
<defs>
<clipPath id="clip0_1232_2854">
<rect width="18" height="18" fill="white"/>
</clipPath>
</defs>
</svg>
