<svg width="16" height="16" viewBox="0 0 16 16" fill="none" xmlns="http://www.w3.org/2000/svg">
<g clip-path="url(#clip0_1443_6631)">
<path fill-rule="evenodd" clip-rule="evenodd" d="M3.33325 3.33317C3.33325 3.15636 3.40349 2.98679 3.52851 2.86177C3.65354 2.73674 3.82311 2.6665 3.99992 2.6665H11.9999C12.1767 2.6665 12.3463 2.73674 12.4713 2.86177C12.5963 2.98679 12.6666 3.15636 12.6666 3.33317V4.6665C12.6666 4.84331 12.5963 5.01288 12.4713 5.13791C12.3463 5.26293 12.1767 5.33317 11.9999 5.33317C11.8231 5.33317 11.6535 5.26293 11.5285 5.13791C11.4035 5.01288 11.3333 4.84331 11.3333 4.6665V3.99984H8.66658V12.6665H9.33325C9.51006 12.6665 9.67963 12.7367 9.80466 12.8618C9.92968 12.9868 9.99992 13.1564 9.99992 13.3332C9.99992 13.51 9.92968 13.6796 9.80466 13.8046C9.67963 13.9296 9.51006 13.9998 9.33325 13.9998H6.66658C6.48977 13.9998 6.3202 13.9296 6.19518 13.8046C6.07016 13.6796 5.99992 13.51 5.99992 13.3332C5.99992 13.1564 6.07016 12.9868 6.19518 12.8618C6.3202 12.7367 6.48977 12.6665 6.66658 12.6665H7.33325V3.99984H4.66659V4.6665C4.66659 4.84331 4.59635 5.01288 4.47132 5.13791C4.3463 5.26293 4.17673 5.33317 3.99992 5.33317C3.82311 5.33317 3.65354 5.26293 3.52851 5.13791C3.40349 5.01288 3.33325 4.84331 3.33325 4.6665V3.33317Z" fill="white"/>
</g>
<defs>
<clipPath id="clip0_1443_6631">
<rect width="16" height="16" fill="white"/>
</clipPath>
</defs>
</svg>
