<svg width="20" height="20" viewBox="0 0 20 20" fill="none" xmlns="http://www.w3.org/2000/svg">
<path d="M10 0C15.5228 0 20 4.47715 20 10C20 15.5228 15.5228 20 10 20C4.47715 20 0 15.5228 0 10C0 4.47715 4.47715 0 10 0ZM7.87874 6.46443C7.48821 6.07391 6.85505 6.07391 6.46452 6.46443C6.10404 6.82492 6.07631 7.39215 6.38133 7.78443L6.46452 7.87864L8.5858 9.9999L6.46443 12.1213C6.07391 12.5118 6.07391 13.145 6.46443 13.5355C6.82492 13.896 7.39215 13.9237 7.78443 13.6187L7.87864 13.5355L10 11.4141L12.1214 13.5355C12.5119 13.926 13.1451 13.926 13.5356 13.5355C13.8961 13.175 13.9238 12.6078 13.6188 12.2155L13.5356 12.1213L11.4142 9.9999L13.5355 7.87862C13.926 7.4881 13.926 6.85493 13.5355 6.46441C13.175 6.10392 12.6078 6.07619 12.2155 6.38122L12.1213 6.46441L10 8.5857L7.87874 6.46443Z" fill="#C4C4C4"/>
</svg>
