<svg width="24" height="24" viewBox="0 0 24 24" fill="none" xmlns="http://www.w3.org/2000/svg">
<path d="M20.17 12.4375C20.17 11.8525 20.1175 11.29 20.02 10.75H12.25V13.9412H16.69C16.4987 14.9725 15.9175 15.8462 15.0437 16.4312V18.5012H17.71C19.27 17.065 20.17 14.95 20.17 12.4375Z" fill="#4285F4"/>
<path d="M12.2499 20.4999C14.4774 20.4999 16.3449 19.7611 17.7099 18.5011L15.0437 16.4311C14.3049 16.9261 13.3599 17.2186 12.2499 17.2186C10.1012 17.2186 8.28243 15.7674 7.63368 13.8174H4.87744V15.9549C6.23494 18.6511 9.02492 20.4999 12.2499 20.4999Z" fill="#34A853"/>
<path d="M7.63374 13.8174C7.46874 13.3224 7.37499 12.7937 7.37499 12.2499C7.37499 11.7062 7.46874 11.1774 7.63374 10.6824V8.54492H4.8775C4.3 9.69456 3.99949 10.9634 4 12.2499C4 13.5812 4.31875 14.8411 4.8775 15.9549L7.63374 13.8174Z" fill="#FBBC05"/>
<path d="M12.2499 7.28124C13.4612 7.28124 14.5487 7.69749 15.4036 8.51498L17.7699 6.14874C16.3411 4.8175 14.4737 4 12.2499 4C9.02493 4 6.23494 5.84874 4.87744 8.54498L7.63368 10.6825C8.28243 8.73248 10.1012 7.28124 12.2499 7.28124Z" fill="#EA4335"/>
</svg>
